<svg width="400" height="100" viewBox="0 0 400 100" fill="none" xmlns="http://www.w3.org/2000/svg">
    <path
        d="M48.4088 13.74L74.1668 80.096C75.1562 82.64 76.2515 84.4067 77.4528 85.396C78.7248 86.3147 79.8555 86.8093 80.8448 86.88V89C78.7248 88.8587 76.2162 88.788 73.3188 88.788C70.4922 88.7173 67.6302 88.682 64.7328 88.682C61.4822 88.682 58.4082 88.7173 55.5108 88.788C52.6135 88.788 50.3168 88.8587 48.6208 89V86.88C52.2248 86.7387 54.4862 86.138 55.4048 85.078C56.3942 83.9473 56.1822 81.58 54.7688 77.976L36.7488 28.686L38.6568 25.93L22.5448 67.906C20.9902 71.7927 20.0362 74.9727 19.6828 77.446C19.4002 79.9193 19.5768 81.8273 20.2128 83.17C20.9195 84.5127 22.0148 85.4667 23.4988 86.032C25.0535 86.5267 26.8908 86.8093 29.0108 86.88V89C26.6788 88.8587 24.4528 88.788 22.3328 88.788C20.2128 88.7173 18.0575 88.682 15.8668 88.682C14.3122 88.682 12.8282 88.7173 11.4148 88.788C10.0722 88.788 8.87082 88.8587 7.81082 89V86.88C9.29482 86.5973 10.8142 85.6433 12.3688 84.018C13.9235 82.3927 15.4428 79.6367 16.9268 75.75L41.0948 13.74C42.2255 13.8107 43.4268 13.846 44.6988 13.846C46.0415 13.846 47.2782 13.8107 48.4088 13.74ZM55.8288 58.472V60.592H24.2408L25.3008 58.472H55.8288ZM92.5288 12.468C97.1928 12.468 101.009 13.1747 103.977 14.588C107.015 15.9307 109.701 17.5207 112.033 19.358C113.446 20.418 114.506 20.5593 115.213 19.782C115.99 18.934 116.52 16.9907 116.803 13.952H119.241C119.1 16.708 118.993 20.0647 118.923 24.022C118.852 27.9087 118.817 33.1027 118.817 39.604H116.379C116.026 36.3533 115.566 33.5973 115.001 31.336C114.435 29.004 113.658 26.9547 112.669 25.188C111.679 23.4213 110.266 21.8313 108.429 20.418C106.662 18.6513 104.613 17.344 102.281 16.496C99.9488 15.648 97.5108 15.224 94.9668 15.224C91.1508 15.224 87.9002 16.2487 85.2148 18.298C82.5295 20.2767 80.3388 22.9973 78.6428 26.46C77.0175 29.9227 75.8162 33.8447 75.0388 38.226C74.2615 42.5367 73.8728 47.024 73.8728 51.688C73.8728 56.4227 74.2615 60.9807 75.0388 65.362C75.8868 69.6727 77.1588 73.524 78.8548 76.916C80.6215 80.308 82.8828 82.9933 85.6388 84.972C88.3948 86.9507 91.6455 87.94 95.3908 87.94C97.7228 87.94 100.055 87.516 102.387 86.668C104.79 85.7493 106.839 84.442 108.535 82.746C111.291 80.626 113.163 78.0113 114.153 74.902C115.142 71.722 115.884 67.5173 116.379 62.288H118.817C118.817 69.0013 118.852 74.4427 118.923 78.612C118.993 82.7107 119.1 86.1733 119.241 89H116.803C116.52 85.9613 116.026 84.0533 115.319 83.276C114.683 82.4987 113.588 82.6047 112.033 83.594C109.418 85.4313 106.627 87.0567 103.659 88.47C100.762 89.8127 97.0162 90.484 92.4228 90.484C84.9322 90.484 78.3602 88.9647 72.7068 85.926C67.1242 82.8873 62.7782 78.506 59.6688 72.782C56.5595 67.058 55.0048 60.168 55.0048 52.112C55.0048 44.1973 56.5948 37.272 59.7748 31.336C63.0255 25.4 67.4422 20.7713 73.0248 17.45C78.6782 14.1287 85.1795 12.468 92.5288 12.468Z"
        fill="#282828" />
    <path d="M160.907 12.468L132.075 90.484H128.577L157.409 12.468H160.907Z" fill="#4A00FF" />
    <path
        d="M167.815 13.952C169.652 14.0227 172.055 14.0933 175.023 14.164C177.991 14.2347 180.959 14.27 183.927 14.27C187.319 14.27 190.605 14.2347 193.785 14.164C196.965 14.0933 199.226 14.058 200.569 14.058C209.331 14.058 215.868 15.6127 220.179 18.722C224.56 21.8313 226.751 25.824 226.751 30.7C226.751 33.1733 226.009 35.682 224.525 38.226C223.041 40.77 220.744 43.0313 217.635 45.01C214.525 46.9887 210.497 48.4373 205.551 49.356V49.568C212.193 50.0627 217.458 51.264 221.345 53.172C225.231 55.08 228.023 57.3767 229.719 60.062C231.415 62.7473 232.263 65.5387 232.263 68.436C232.263 72.888 231.097 76.6333 228.765 79.672C226.433 82.7107 223.076 85.0427 218.695 86.668C214.313 88.2227 209.084 89 203.007 89C201.311 89 198.873 88.9647 195.693 88.894C192.513 88.7527 188.661 88.682 184.139 88.682C181.029 88.682 177.991 88.7173 175.023 88.788C172.055 88.788 169.652 88.8587 167.815 89V86.88C170.076 86.7387 171.772 86.456 172.903 86.032C174.033 85.608 174.775 84.76 175.129 83.488C175.553 82.216 175.765 80.308 175.765 77.764V25.188C175.765 22.5733 175.553 20.6653 175.129 19.464C174.775 18.192 173.998 17.344 172.797 16.92C171.666 16.4253 170.005 16.1427 167.815 16.072V13.952ZM199.191 16.072C196.435 16.072 194.633 16.6727 193.785 17.874C193.007 19.0753 192.619 21.5133 192.619 25.188V77.764C192.619 80.2373 192.795 82.11 193.149 83.382C193.573 84.654 194.279 85.502 195.269 85.926C196.329 86.35 197.883 86.562 199.933 86.562C205.021 86.562 208.731 84.972 211.063 81.792C213.465 78.5413 214.667 73.948 214.667 68.012C214.667 62.5707 213.289 58.366 210.533 55.398C207.847 52.43 203.36 50.946 197.071 50.946H188.061C188.061 50.946 188.061 50.6633 188.061 50.098C188.061 49.462 188.061 49.144 188.061 49.144H197.177C200.498 49.144 203.042 48.3667 204.809 46.812C206.575 45.1867 207.812 43.0667 208.519 40.452C209.225 37.7667 209.579 34.9047 209.579 31.866C209.579 26.6367 208.766 22.7147 207.141 20.1C205.515 17.4147 202.865 16.072 199.191 16.072ZM306.348 13.952V16.072C304.087 16.3547 302.356 16.9553 301.154 17.874C300.024 18.722 299.282 20.1 298.928 22.008C298.575 23.916 298.398 26.6013 298.398 30.064V58.154C298.398 62.7473 298.08 66.952 297.444 70.768C296.808 74.584 295.678 77.87 294.052 80.626C292.215 83.6647 289.53 86.0673 285.996 87.834C282.463 89.6007 277.976 90.484 272.534 90.484C269.284 90.484 265.962 90.0953 262.57 89.318C259.178 88.6113 256.14 87.2333 253.454 85.184C251.193 83.276 249.462 81.1207 248.26 78.718C247.059 76.3153 246.246 73.4887 245.822 70.238C245.398 66.9167 245.186 62.9947 245.186 58.472V25.188C245.186 22.5733 244.974 20.6653 244.55 19.464C244.197 18.192 243.455 17.344 242.324 16.92C241.194 16.4253 239.498 16.1427 237.236 16.072V13.952C239.003 14.0227 241.37 14.0933 244.338 14.164C247.377 14.2347 250.522 14.27 253.772 14.27C257.023 14.27 260.132 14.2347 263.1 14.164C266.139 14.0933 268.648 14.0227 270.626 13.952V16.072C268.224 16.1427 266.386 16.4253 265.114 16.92C263.913 17.344 263.1 18.192 262.676 19.464C262.252 20.6653 262.04 22.5733 262.04 25.188V65.15C262.04 68.6833 262.252 71.828 262.676 74.584C263.171 77.2693 263.948 79.5307 265.008 81.368C266.139 83.1347 267.658 84.4773 269.566 85.396C271.474 86.3147 273.842 86.774 276.668 86.774C281.615 86.774 285.466 85.608 288.222 83.276C291.049 80.944 293.028 77.7287 294.158 73.63C295.36 69.4607 295.96 64.6907 295.96 59.32V31.336C295.96 27.4493 295.713 24.4813 295.218 22.432C294.724 20.312 293.734 18.7927 292.25 17.874C290.837 16.9553 288.646 16.3547 285.678 16.072V13.952C287.021 14.0227 288.788 14.0933 290.978 14.164C293.169 14.2347 295.218 14.27 297.126 14.27C298.822 14.27 300.483 14.2347 302.108 14.164C303.804 14.0933 305.218 14.0227 306.348 13.952ZM344.662 13.952C358.584 13.952 368.936 17.132 375.72 23.492C382.504 29.7813 385.896 38.8267 385.896 50.628C385.896 58.3307 384.236 65.0793 380.914 70.874C377.593 76.598 372.752 81.05 366.392 84.23C360.103 87.41 352.542 89 343.708 89C342.578 89 341.094 88.9647 339.256 88.894C337.419 88.8233 335.511 88.788 333.532 88.788C331.554 88.7173 329.787 88.682 328.232 88.682C325.123 88.682 322.049 88.7173 319.01 88.788C316.042 88.788 313.675 88.8587 311.908 89V86.88C314.17 86.7387 315.866 86.456 316.996 86.032C318.127 85.608 318.869 84.76 319.222 83.488C319.646 82.216 319.858 80.308 319.858 77.764V25.188C319.858 22.5733 319.646 20.6653 319.222 19.464C318.869 18.192 318.092 17.344 316.89 16.92C315.76 16.4253 314.099 16.1427 311.908 16.072V13.952C313.675 14.0227 316.042 14.1287 319.01 14.27C322.049 14.3407 325.052 14.3407 328.02 14.27C330.564 14.1993 333.426 14.1287 336.606 14.058C339.857 13.9873 342.542 13.952 344.662 13.952ZM344.556 15.86C341.306 15.86 339.186 16.4607 338.196 17.662C337.207 18.8633 336.712 21.3013 336.712 24.976V77.976C336.712 81.6507 337.207 84.0887 338.196 85.29C339.256 86.4913 341.412 87.092 344.662 87.092C350.598 87.092 355.262 85.714 358.654 82.958C362.117 80.1313 364.59 76.0327 366.074 70.662C367.558 65.2913 368.3 58.7547 368.3 51.052C368.3 43.1373 367.488 36.6007 365.862 31.442C364.308 26.2127 361.799 22.326 358.336 19.782C354.874 17.1673 350.28 15.86 344.556 15.86Z"
        fill="#1F2937" />
</svg>