<svg width="100" height="100" viewBox="0 0 100 100" fill="none" xmlns="http://www.w3.org/2000/svg">
    <g clip-path="url(#clip0_29_46)">
        <path
            d="M69.6458 13.796C73.2538 13.796 76.2058 14.3427 78.5018 15.436C80.8525 16.4747 82.9298 17.7047 84.7338 19.126C85.8271 19.946 86.6471 20.0553 87.1938 19.454C87.7951 18.798 88.2051 17.2947 88.4238 14.944H90.3098C90.2005 17.076 90.1185 19.6727 90.0638 22.734C90.0091 25.7407 89.9818 29.7587 89.9818 34.788H88.0958C87.8225 32.2733 87.4671 30.1413 87.0298 28.392C86.5925 26.588 85.9911 25.0027 85.2258 23.636C84.4605 22.2693 83.3671 21.0393 81.9458 19.946C80.5791 18.5793 78.9938 17.568 77.1898 16.912C75.3858 16.256 73.4998 15.928 71.5318 15.928C68.5798 15.928 66.0651 16.7207 63.9878 18.306C61.9105 19.8367 60.2158 21.9413 58.9038 24.62C57.6465 27.2987 56.7171 30.3327 56.1158 33.722C55.5145 37.0567 55.2138 40.528 55.2138 44.136C55.2138 47.7987 55.5145 51.3247 56.1158 54.714C56.7718 58.0487 57.7558 61.028 59.0678 63.652C60.4345 66.276 62.1838 68.3533 64.3158 69.884C66.4478 71.4147 68.9625 72.18 71.8598 72.18C73.6638 72.18 75.4678 71.852 77.2718 71.196C79.1305 70.4853 80.7158 69.474 82.0278 68.162C84.1598 66.522 85.6085 64.4993 86.3738 62.094C87.1391 59.634 87.7131 56.3813 88.0958 52.336H89.9818C89.9818 57.5293 90.0091 61.7387 90.0638 64.964C90.1185 68.1347 90.2005 70.8133 90.3098 73H88.4238C88.2051 70.6493 87.8225 69.1733 87.2758 68.572C86.7838 67.9707 85.9365 68.0527 84.7338 68.818C82.7111 70.2393 80.5518 71.4967 78.2558 72.59C76.0145 73.6287 73.1171 74.148 69.5638 74.148C63.7691 74.148 58.6851 72.9727 54.3118 70.622C49.9931 68.2713 46.6311 64.882 44.2258 60.454C41.8205 56.026 40.6178 50.696 40.6178 44.464C40.6178 38.3413 41.8478 32.984 44.3078 28.392C46.8225 23.8 50.2391 20.2193 54.5578 17.65C58.9311 15.0807 63.9605 13.796 69.6458 13.796Z"
            fill="#1F2937" />
        <path
            d="M35.3293 14.78L55.2553 66.112C56.0207 68.08 56.868 69.4467 57.7973 70.212C58.7813 70.9227 59.656 71.3053 60.4213 71.36V73C58.7813 72.8907 56.8407 72.836 54.5993 72.836C52.4127 72.7813 50.1987 72.754 47.9573 72.754C45.4427 72.754 43.0647 72.7813 40.8233 72.836C38.582 72.836 36.8053 72.8907 35.4933 73V71.36C38.2813 71.2507 40.0307 70.786 40.7413 69.966C41.5067 69.0913 41.3427 67.26 40.2493 64.472L26.3093 26.342L27.7853 24.21L15.3213 56.682C14.1187 59.6887 13.3807 62.1487 13.1073 64.062C12.8887 65.9753 13.0253 67.4513 13.5173 68.49C14.064 69.5287 14.9113 70.2667 16.0593 70.704C17.262 71.0867 18.6833 71.3053 20.3233 71.36V73C18.5193 72.8907 16.7973 72.836 15.1573 72.836C13.5173 72.7813 11.85 72.754 10.1553 72.754C8.95265 72.754 7.80465 72.7813 6.71132 72.836C5.67265 72.836 4.74332 72.8907 3.92332 73V71.36C5.07132 71.1413 6.24665 70.4033 7.44932 69.146C8.65199 67.8887 9.82732 65.7567 10.9753 62.75L29.6713 14.78C30.546 14.8347 31.4753 14.862 32.4593 14.862C33.498 14.862 34.4547 14.8347 35.3293 14.78ZM41.0693 49.384V51.024H16.6333L17.4533 49.384H41.0693Z"
            fill="#282828" />
        <path d="M12.4359 82.7209L87.7616 83.1146L88.8442 86.0918L13.5186 85.6982L12.4359 82.7209Z"
            fill="#4A00FF" />
    </g>
    <defs>
        <clipPath id="clip0_29_46">
            <rect width="100" height="100" fill="white" />
        </clipPath>
    </defs>
</svg>